<?xml version="1.0" encoding="UTF-8" standalone="no"?>
<!DOCTYPE svg PUBLIC "-//W3C//DTD SVG 1.1//EN" "http://www.w3.org/Graphics/SVG/1.1/DTD/svg11.dtd">
<svg width="100%" height="100%" viewBox="0 0 324 324" version="1.1" xmlns="http://www.w3.org/2000/svg" xmlns:xlink="http://www.w3.org/1999/xlink" xml:space="preserve" xmlns:serif="http://www.serif.com/" style="fill-rule:evenodd;clip-rule:evenodd;stroke-linejoin:round;stroke-miterlimit:2;">
    <path d="M162,0C72.5,0 0,72.5 0,162C0,251.5 72.5,324 162,324C251.5,324 324,251.5 324,162C324,72.5 251.5,0 162,0ZM285.3,216.4C277.9,220.3 271.4,222.8 265.7,224.2C262.4,225 259.3,225.4 256.4,225.4C250.6,225.4 245.7,223.8 241.8,220.6C233.4,213.9 232.3,200.3 231.1,184.6C230.7,179.5 230.1,171.7 229,167.1C226,168.9 221.7,172 218,174.7C213.2,178.2 207.3,182.5 200.3,186.9C198.3,188.2 196.3,189.5 194.4,190.7C175.4,203.1 162.8,211.3 150.7,206.1C127,196 128.2,157.1 129.3,119.4C129.7,107.1 130,95.5 129.5,86.1C129,77.5 127.8,73.6 127,72C125.4,72.7 121.9,74.8 116,80.9C110.1,87 104.5,94.5 100.4,99.9C79.8,127.1 67.2,160.8 63.8,197.3C63.3,203.1 58.1,207.3 52.4,206.8C46.6,206.3 42.4,201.2 42.9,195.4C46.6,154.9 60.8,117.5 83.7,87.2C100,66 117.2,45.7 134.4,51.7C152.4,58 151.5,85.4 150.5,120.1C150,136.4 149.5,153.2 151.1,166.5C152.4,177.5 155.2,184.7 158.8,186.6C162.6,186.4 174,179 183.1,173.1C185,171.9 187,170.6 189,169.3C195.4,165.1 200.9,161.2 205.7,157.7C218.8,148.2 230.2,140 241.1,147.9C249.6,154 250.7,167.4 252,182.9C252.5,189.2 253.4,200.8 255.2,204.3C256.5,204.6 262,204.9 275.6,197.8C280.8,195.1 287.1,197.1 289.8,202.3C292.4,207.4 290.4,213.8 285.3,216.4Z" style="fill:rgb(51,51,51);fill-rule:nonzero;" />
</svg>